<svg width="34" height="139" viewBox="0 0 34 139" fill="none" xmlns="http://www.w3.org/2000/svg">
<g clip-path="url(#clip0_717_61)">
<mask id="mask0_717_61" style="mask-type:luminance" maskUnits="userSpaceOnUse" x="0" y="0" width="34" height="139">
<path d="M33.5 0H0.5V138.092H33.5V0Z" fill="white"/>
</mask>
<g mask="url(#mask0_717_61)">
<path d="M33.5 138.092H5.57692C2.77301 138.092 0.5 135.819 0.5 133.015L0.500011 5.07692C0.500011 2.27301 2.77303 -2.45129e-07 5.57692 0L33.5 2.44111e-06V138.092Z" fill="#FDC300"/>
<path d="M16.4911 108.581C17.486 108.581 18.3583 108.756 19.1079 109.108C19.8575 109.46 20.4359 109.964 20.8432 110.622C21.2504 111.274 21.454 112.023 21.454 112.87C21.454 113.708 21.2527 114.455 20.8501 115.112C20.4475 115.77 19.8737 116.278 19.1287 116.639C18.3791 117 17.5184 117.183 16.5466 117.188H16.0469C15.052 117.188 14.1774 117.009 13.4231 116.653C12.6642 116.292 12.0835 115.785 11.6809 115.133C11.2737 114.476 11.0701 113.727 11.0701 112.884C11.0701 112.042 11.2737 111.295 11.6809 110.642C12.0835 109.985 12.6642 109.478 13.4231 109.122C14.1774 108.761 15.0497 108.581 16.0399 108.581H16.4911ZM16.033 110.691C14.9733 110.691 14.1681 110.881 13.6175 111.26C13.0668 111.64 12.7915 112.181 12.7915 112.884C12.7915 113.583 13.0645 114.122 13.6105 114.501C14.1519 114.881 14.9478 115.073 15.9983 115.078H16.4911C17.523 115.078 18.3235 114.888 18.8927 114.508C19.4619 114.129 19.7465 113.583 19.7465 112.87C19.7465 112.172 19.4735 111.635 18.9274 111.26C18.3768 110.885 17.5762 110.695 16.5258 110.691H16.033ZM15.4152 100.966V103.375H21.3152V105.388H15.4152V107.755H13.8049V100.966H15.4152ZM16.0191 96.0102C15.7553 96.0102 15.5517 96.0985 15.4083 96.2742C15.2602 96.4453 15.1861 96.6905 15.1861 97.0098C15.1861 97.3383 15.2556 97.6069 15.3944 97.815C15.5286 98.0186 15.7206 98.1207 15.9705 98.1207V100.127C15.2903 100.127 14.7373 99.8443 14.3116 99.2797C13.8858 98.7152 13.673 97.9932 13.673 97.1139C13.673 96.1468 13.8627 95.3878 14.2422 94.8374C14.6216 94.282 15.1607 94.0043 15.8595 94.0043C16.1926 94.0043 16.5004 94.1063 16.7826 94.3099C17.0603 94.5089 17.2824 94.7912 17.449 95.1568C17.7497 94.3003 18.3305 93.8723 19.1912 93.8723C19.8807 93.8723 20.4313 94.1688 20.8432 94.7608C21.2504 95.3487 21.454 96.1331 21.454 97.1139C21.454 98.0257 21.2411 98.7751 20.8154 99.363C20.3897 99.9504 19.8159 100.244 19.094 100.244V98.2385C19.3485 98.2385 19.5544 98.1252 19.7118 97.8983C19.8691 97.6714 19.9478 97.3754 19.9478 97.0098C19.9478 96.6534 19.8645 96.3757 19.6979 96.1767C19.5313 95.9782 19.3138 95.8787 19.0454 95.8787C18.7169 95.8787 18.4832 95.9731 18.3443 96.163C18.2009 96.3529 18.1292 96.6372 18.1292 97.0169V98.1065H16.8243V96.9474C16.8057 96.3229 16.5374 96.0102 16.0191 96.0102ZM16.0052 90.5063V89.069C16.0052 88.4212 16.114 87.8521 16.3315 87.3617C16.5489 86.8712 16.8613 86.4965 17.2685 86.2371C17.6711 85.9736 18.1408 85.8416 18.6775 85.8416C19.4688 85.8416 20.1074 86.1356 20.5933 86.723C21.0746 87.3063 21.3152 88.1024 21.3152 89.1107V92.5188H13.8049V90.5063H16.0052ZM21.3152 82.6488V84.6546H13.8049V82.6488H21.3152ZM17.6156 90.5063H19.7118V89.0832C19.7118 88.6852 19.6192 88.3796 19.4341 88.1669C19.249 87.9541 18.9968 87.8475 18.6775 87.8475C18.3536 87.8475 18.0968 87.9516 17.9071 88.1598C17.7127 88.3684 17.6156 88.6761 17.6156 89.0832V90.5063ZM21.3152 80.7469H13.8049V77.6094C13.8049 76.5869 13.9854 75.8025 14.3463 75.2562C14.7072 74.7105 15.2255 74.4373 15.9011 74.4373C16.2481 74.4373 16.5605 74.5531 16.8381 74.7846C17.1112 75.011 17.3217 75.3446 17.4698 75.7837C17.5716 75.2471 17.7729 74.8262 18.0736 74.5206C18.3698 74.2109 18.7354 74.0556 19.1704 74.0556C19.8691 74.0556 20.4013 74.3196 20.7668 74.847C21.1324 75.37 21.3152 76.131 21.3152 77.1306V80.7469ZM18.1986 78.741H19.7118V77.1235C19.7118 76.4158 19.4642 76.0614 18.9691 76.0614C18.4647 76.0614 18.2079 76.3996 18.1986 77.0748V78.741ZM16.852 78.741V77.4982C16.8428 76.7951 16.616 76.4432 16.1718 76.4432C15.8988 76.4432 15.7045 76.5407 15.5887 76.7352C15.473 76.9245 15.4152 77.2159 15.4152 77.6094V78.741H16.852ZM17.4906 69.5995C16.7456 69.5995 16.0816 69.4559 15.4985 69.169C14.9154 68.8822 14.4643 68.4704 14.145 67.9338C13.8257 67.3921 13.6661 66.7651 13.6661 66.0528C13.6661 65.0389 13.9761 64.2129 14.5962 63.5748C15.2163 62.9315 16.0584 62.5726 17.1227 62.499L17.6364 62.4847C18.7886 62.4847 19.7141 62.8066 20.4128 63.4499C21.107 64.0926 21.454 64.9557 21.454 66.0386C21.454 67.1215 21.107 67.9866 20.4128 68.6344C19.7187 69.2777 18.7747 69.5995 17.5808 69.5995H17.4906ZM17.6364 67.5936C18.349 67.5936 18.895 67.4591 19.2745 67.191C19.6493 66.9225 19.8367 66.5387 19.8367 66.0386C19.8367 65.5527 19.6516 65.1735 19.2814 64.9003C18.9066 64.6272 18.3097 64.4906 17.4906 64.4906C16.7919 64.4906 16.2505 64.6272 15.8664 64.9003C15.4823 65.1735 15.2903 65.5573 15.2903 66.0528C15.2903 66.5432 15.4823 66.9225 15.8664 67.191C16.2459 67.4591 16.8358 67.5936 17.6364 67.5936ZM19.8367 54.5861C19.8367 54.2154 19.7349 53.9149 19.5313 53.6834C19.3277 53.4524 19.057 53.3321 18.7192 53.3224V51.4414C19.2282 51.446 19.6956 51.5851 20.1213 51.8582C20.5424 52.1309 20.8709 52.506 21.107 52.9823C21.3383 53.4544 21.454 53.9773 21.454 54.551C21.454 55.6248 21.1139 56.4716 20.4337 57.0915C19.7488 57.7114 18.8048 58.0216 17.6017 58.0216H17.4698C16.3129 58.0216 15.3898 57.714 14.7003 57.0986C14.0108 56.4833 13.6661 55.6385 13.6661 54.5652C13.6661 53.6255 13.9344 52.8736 14.4712 52.3091C15.0034 51.7399 15.7137 51.4506 16.6022 51.4414V53.3224C16.2135 53.3321 15.8988 53.4524 15.6581 53.6834C15.4129 53.9149 15.2903 54.2205 15.2903 54.5998C15.2903 55.0668 15.4615 55.4212 15.8039 55.6619C16.1417 55.8979 16.6924 56.0157 17.4559 56.0157H17.6641C18.4369 56.0157 18.9922 55.8979 19.33 55.6619C19.6678 55.4258 19.8367 55.0668 19.8367 54.5861ZM21.3152 45.9442C21.1347 46.0367 20.9103 46.1038 20.6419 46.1455C21.1833 46.6313 21.454 47.263 21.454 48.0404C21.454 48.7761 21.2411 49.3869 20.8154 49.8728C20.3897 50.3541 19.8529 50.5947 19.2051 50.5947C18.4091 50.5947 17.7983 50.3009 17.3726 49.7132C16.9469 49.1209 16.7317 48.2671 16.7271 47.1519V46.2287H16.2967C15.9497 46.2287 15.6721 46.319 15.4638 46.4994C15.2556 46.6753 15.1515 46.9552 15.1515 47.3393C15.1515 47.6771 15.2325 47.9432 15.3944 48.1376C15.5564 48.3273 15.7785 48.4222 16.0608 48.4222V50.4281C15.6258 50.4281 15.2232 50.2939 14.853 50.0256C14.4828 49.7571 14.1936 49.3777 13.9854 48.8872C13.7725 48.3967 13.6661 47.846 13.6661 47.2352C13.6661 46.3097 13.8998 45.5763 14.3671 45.0349C14.8298 44.4889 15.4823 44.2158 16.3245 44.2158H19.5799C20.2925 44.2112 20.8316 44.1117 21.1972 43.9174H21.3152V45.9442ZM19.92 47.6031C19.92 47.3069 19.8552 47.0339 19.7256 46.784C19.5914 46.5342 19.4133 46.3491 19.1912 46.2287H17.9001V46.9784C17.9001 47.9826 18.2472 48.517 18.9413 48.5818L19.0593 48.5887C19.3092 48.5887 19.5151 48.5008 19.677 48.3249C19.839 48.1491 19.92 47.9085 19.92 47.6031ZM13.8049 38.1493V36.1433H21.3152V38.1493H16.6785L21.3152 40.662V42.6749H13.8049V40.662H18.4346L13.8049 38.1493ZM10.7578 36.9693C11.3732 36.9693 11.8706 37.1915 12.2501 37.6357C12.6295 38.0752 12.8192 38.6537 12.8192 39.3709C12.8192 40.0882 12.6318 40.6689 12.257 41.1132C11.8822 41.5528 11.3825 41.7726 10.7578 41.7726V40.3497C11.0493 40.3497 11.276 40.264 11.438 40.0928C11.5953 39.917 11.674 39.6764 11.674 39.3709C11.674 39.0702 11.5953 38.8341 11.438 38.663C11.276 38.4918 11.0493 38.4061 10.7578 38.4061V36.9693ZM15.4152 28.3762V30.7848H21.3152V32.7977H15.4152V35.1647H13.8049V28.3762H15.4152ZM21.454 24.3504C21.454 25.4517 21.1162 26.3494 20.4406 27.0436C19.765 27.733 18.8649 28.0778 17.7405 28.0778H17.5462C16.7919 28.0778 16.1186 27.932 15.5263 27.6405C14.9294 27.3489 14.4712 26.9371 14.1519 26.405C13.828 25.8682 13.6661 25.2573 13.6661 24.5725C13.6661 23.5452 13.99 22.7378 14.6378 22.1501C15.2857 21.5577 16.2042 21.2616 17.3934 21.2616H18.2125V26.044C18.703 25.9792 19.0963 25.7849 19.3925 25.461C19.6886 25.1324 19.8367 24.7183 19.8367 24.2185C19.8367 23.4457 19.5568 22.8418 18.9968 22.4069L20.1005 21.4213C20.5262 21.722 20.8594 22.1292 21.1 22.6429C21.336 23.1565 21.454 23.7257 21.454 24.3504ZM15.2903 24.5795C15.2903 24.9774 15.4245 25.3013 15.6929 25.5512C15.9612 25.7965 16.3453 25.9538 16.8451 26.0232V23.2329H16.6855C16.2412 23.2421 15.8988 23.3624 15.6581 23.5938C15.4129 23.8252 15.2903 24.1537 15.2903 24.5795Z" fill="#21282B"/>
</g>
</g>
<defs>
<clipPath id="clip0_717_61">
<rect width="33" height="139" fill="white" transform="translate(0.5)"/>
</clipPath>
</defs>
</svg>
